<?xml version="1.0" encoding="iso-8859-1"?>
<!-- Generator: Adobe Illustrator 19.0.0, SVG Export Plug-In . SVG Version: 6.00 Build 0)  -->
<svg version="1.1" id="Layer_1" xmlns="http://www.w3.org/2000/svg" xmlns:xlink="http://www.w3.org/1999/xlink" x="0px" y="0px"
	 viewBox="0 0 455 455" style="enable-background:new 0 0 455 455;" xml:space="preserve">
<g>
	<path style="fill-rule:evenodd;clip-rule:evenodd;" d="M225.851,146.291h39.646c1.899,0,3.505,0.512,5.233,0.818
		c-3.386-11.896-13.672-19.994-27.278-19.994h-39.629l-17.347,76.733h26.385L225.851,146.291z"/>
	<path style="fill-rule:evenodd;clip-rule:evenodd;" d="M225.952,203.696c20.151-0.787,39.939-17.399,44.761-38.216
		c0.359-1.33,0.442-2.581,0.648-3.863h-35.923L225.952,203.696z"/>
	<path style="fill-rule:evenodd;clip-rule:evenodd;" d="M0,0v455h455V0H0z M135.276,70h137.931c40.434,0,87.518,29.82,73.504,95.462
		c-12.407,57.986-58.651,92.098-113.973,92.098h-57.816l-19.823,92.951H74.161L135.276,70z M378.324,199.968
		c-12.39,57.986-58.669,92.098-113.969,92.098H206.54L186.717,385h-80.938l3.364-15.33h68.001l19.806-92.951h57.833
		c55.304,0,101.565-34.094,113.955-92.081c4.651-21.74,2.494-39.458-3.793-53.576C378.053,146.716,384.856,169.413,378.324,199.968z
		"/>
</g>
<g>
</g>
<g>
</g>
<g>
</g>
<g>
</g>
<g>
</g>
<g>
</g>
<g>
</g>
<g>
</g>
<g>
</g>
<g>
</g>
<g>
</g>
<g>
</g>
<g>
</g>
<g>
</g>
<g>
</g>
</svg>
